<?xml version="1.0" standalone="no"?>
<!DOCTYPE svg PUBLIC "-//W3C//DTD SVG 20010904//EN"
 "http://www.w3.org/TR/2001/REC-SVG-20010904/DTD/svg10.dtd">
<svg version="1.0" xmlns="http://www.w3.org/2000/svg"
 width="670.000000pt" height="386.000000pt" viewBox="0 0 670.000000 386.000000"
 preserveAspectRatio="xMidYMid meet">

<g transform="translate(0.000000,386.000000) scale(0.100000,-0.100000)"
fill="#000000" stroke="none">
<path d="M418 3463 c2 -219 8 -402 13 -407 5 -6 9 21 9 66 0 79 12 100 42 75
21 -17 40 -93 33 -127 -8 -38 13 -49 103 -52 79 -3 111 11 78 35 -15 11 -31
88 -84 410 l-67 397 -66 0 -66 0 5 -397z"/>
<path d="M4453 3835 c-15 -6 -62 -20 -103 -29 -95 -22 -130 -35 -155 -57 -11
-9 -45 -29 -75 -44 -30 -15 -63 -34 -72 -42 -9 -8 -21 -12 -26 -9 -9 5 -75
-67 -78 -84 -2 -13 -28 -71 -58 -130 -34 -64 -49 -111 -61 -180 -3 -19 -13
-64 -21 -100 -16 -67 -39 -195 -49 -265 -3 -22 -7 -89 -10 -150 -8 -155 -22
-264 -44 -328 -47 -136 -58 -272 -35 -454 6 -50 5 -54 -35 -104 -42 -52 -51
-79 -28 -79 6 0 23 23 35 51 13 27 28 49 35 46 6 -2 18 -22 28 -45 14 -31 14
-40 4 -36 -9 4 -19 -13 -32 -57 -16 -56 -23 -66 -66 -92 -26 -17 -46 -31 -44
-33 1 -2 21 2 44 8 38 9 44 8 79 -18 l37 -29 -29 -6 c-16 -4 -22 -7 -13 -8 20
-1 79 -66 79 -86 0 -7 -6 -15 -12 -17 -7 -3 -3 -7 9 -10 18 -5 22 1 37 60 19
78 28 89 84 113 36 16 58 18 127 13 51 -4 95 -3 114 4 23 8 38 8 56 0 24 -11
27 -15 29 -40 1 -7 6 -16 11 -20 6 -4 0 -8 -13 -8 -22 0 -22 -1 -8 -22 20 -28
20 -38 2 -38 -7 0 -16 -10 -20 -22 -9 -33 -7 -40 6 -32 8 5 9 0 6 -14 -4 -12
-2 -22 3 -22 7 0 2 -23 -18 -70 -3 -8 -5 -23 -4 -34 2 -11 -2 -16 -8 -12 -6 4
-11 3 -11 -3 0 -5 6 -12 13 -14 10 -4 10 -6 0 -6 -7 -1 -13 -12 -13 -24 0 -22
-3 -23 -43 -17 -24 3 -52 3 -62 0 -17 -6 -18 -7 -1 -13 10 -4 25 -7 35 -7 10
0 27 -11 39 -25 12 -14 26 -25 32 -25 18 0 11 -18 -10 -25 -11 -4 -18 -10 -16
-14 3 -4 0 -8 -7 -9 -30 -2 -163 -44 -197 -62 -70 -36 -121 -128 -91 -164 6
-7 8 -16 4 -19 -3 -4 -1 -7 5 -7 7 0 12 10 12 23 1 34 34 99 68 131 17 16 52
34 79 41 26 7 57 17 68 21 19 8 19 7 3 -10 -29 -28 -21 -37 15 -16 17 11 46
20 62 20 l30 0 -27 -18 c-35 -23 -59 -56 -83 -112 -10 -25 -26 -56 -36 -70 -9
-14 -20 -36 -24 -50 -4 -14 -13 -31 -19 -39 -6 -8 -11 -23 -11 -35 0 -21 -47
-53 -53 -36 -2 6 -10 10 -17 10 -7 0 -16 7 -19 16 -3 8 -10 12 -16 9 -5 -3
-10 -1 -10 4 0 6 -4 11 -10 11 -5 0 -7 -8 -4 -17 2 -10 -1 -8 -8 5 -7 15 -18
22 -29 19 -13 -4 -22 5 -32 32 -20 49 -37 143 -37 203 0 82 -16 53 -30 -54 -7
-57 -19 -116 -26 -132 -15 -32 -7 -50 25 -61 10 -3 27 -21 37 -40 19 -35 19
-36 -4 -79 -21 -39 -55 -66 -84 -66 -6 0 -21 -12 -34 -26 -24 -25 -44 -25 -44
1 0 7 12 24 28 37 38 34 52 62 51 105 l0 38 -27 -53 c-17 -33 -32 -52 -44 -52
-10 0 -18 -7 -18 -15 0 -16 -43 -65 -57 -65 -4 0 -14 4 -21 9 -11 6 -8 16 12
46 14 21 26 41 26 45 0 4 -11 19 -25 34 -14 15 -25 22 -25 17 0 -6 -5 -10 -12
-9 -15 4 -39 -42 -33 -63 3 -8 -4 -33 -14 -55 l-19 -39 39 -3 c44 -4 46 -10
24 -72 -18 -50 -18 -50 -5 -50 6 0 10 11 10 25 0 17 6 25 18 25 14 0 15 2 2
10 -17 11 -16 11 23 16 15 1 27 -1 27 -5 0 -5 9 -11 21 -14 15 -4 23 0 26 14
6 23 12 23 37 4 10 -8 23 -12 27 -9 5 3 9 0 9 -7 0 -7 8 -9 21 -6 12 3 29 1
39 -5 11 -7 22 -8 35 -1 16 9 13 12 -19 23 -20 6 -36 15 -36 18 0 4 46 6 102
4 57 -1 165 4 241 10 l138 13 -38 44 c-22 26 -47 72 -60 110 -12 36 -23 60
-23 53 0 -7 -4 -10 -10 -7 -5 3 -10 1 -10 -4 0 -6 -4 -11 -10 -11 -5 0 -10 8
-10 18 0 14 -2 15 -10 2 -14 -21 -12 -9 5 39 8 23 23 54 34 67 11 14 28 49 37
77 36 108 96 167 150 147 32 -12 42 -6 24 15 -10 12 -9 26 6 72 9 32 22 64 27
70 5 7 7 20 3 28 -7 18 -36 20 -37 3 0 -7 -2 -22 -5 -33 -2 -11 -5 -32 -6 -47
0 -15 -7 -29 -15 -32 -11 -5 -13 -1 -7 17 8 23 12 48 13 81 1 11 28 46 61 78
41 40 60 65 60 82 0 24 16 43 26 33 5 -5 -9 -99 -23 -156 l-6 -25 23 22 c20
19 35 24 70 24 3 1 17 -2 32 -6 l27 -6 -30 32 c-16 18 -29 36 -29 41 0 5 -6 7
-14 4 -10 -4 -13 3 -12 26 1 18 -3 37 -10 44 -14 15 -7 262 8 280 12 15 52 18
43 3 -3 -5 -1 -10 5 -10 6 0 10 6 8 13 -1 6 3 21 9 32 6 11 14 51 18 89 5 46
14 75 26 87 11 11 17 19 14 19 -3 0 0 10 6 23 l12 22 14 -30 c13 -29 14 -29 8
19 -5 33 -3 46 4 41 6 -3 11 -13 11 -21 0 -17 48 -138 86 -218 8 -16 14 -33
14 -39 0 -5 7 -24 16 -42 l15 -33 37 18 c20 10 41 15 47 12 5 -3 -10 -14 -34
-25 -23 -10 -41 -21 -38 -23 2 -2 21 3 42 12 31 13 39 13 46 2 13 -20 11 -26
-12 -38 -33 -18 -47 -5 -14 14 l30 17 -30 -6 c-39 -8 -52 -22 -37 -37 7 -7 12
-20 12 -30 0 -9 9 -22 20 -28 11 -6 17 -16 14 -25 -4 -8 1 -18 10 -21 9 -3 16
-12 16 -19 0 -25 -20 -27 -40 -3 -24 28 -24 22 -4 -38 15 -43 15 -48 0 -56
-15 -9 -22 -48 -11 -60 8 -8 54 15 60 29 2 7 -3 13 -12 13 -11 0 -13 3 -5 13
7 8 7 18 2 27 -5 8 -5 19 0 25 5 7 16 28 25 48 14 34 14 36 -2 30 -11 -4 -14
-3 -9 5 4 7 14 12 22 12 8 0 14 5 14 10 0 6 9 10 20 10 32 0 25 31 -32 137
-80 151 -124 243 -147 303 -22 58 -27 95 -12 85 5 -3 12 -1 16 4 3 5 19 17 36
25 27 14 33 13 62 -4 21 -12 54 -20 97 -21 36 -1 71 -6 78 -12 7 -6 34 -16 60
-22 34 -9 46 -17 44 -29 -2 -9 2 -16 8 -16 6 0 8 5 5 10 -3 6 0 10 7 10 17 0
70 83 88 138 18 57 23 48 9 -19 -6 -30 -12 -74 -13 -99 -3 -60 -15 -93 -31
-86 -21 8 -26 -6 -12 -28 11 -18 10 -46 -5 -171 -9 -82 -20 -181 -22 -218 -3
-37 -8 -72 -11 -77 -3 -6 -1 -10 5 -10 6 0 8 -6 4 -12 -4 -7 0 -6 9 2 8 8 29
56 46 106 26 79 32 112 37 235 3 79 12 177 20 218 7 40 12 77 9 81 -2 4 9 40
24 80 32 82 57 99 69 47 3 -18 6 -34 5 -37 -1 -3 -8 -29 -16 -57 -9 -29 -14
-53 -12 -53 2 0 14 22 27 50 13 27 26 50 30 50 11 0 19 -36 11 -56 -6 -16 -4
-17 9 -7 12 11 21 10 44 -1 16 -8 43 -17 61 -21 30 -6 32 -5 35 26 3 30 7 33
78 57 41 14 93 34 115 45 38 20 56 31 124 77 l29 19 31 -28 c27 -25 31 -36 31
-79 0 -28 5 -54 11 -58 6 -3 8 -17 4 -31 -5 -21 3 -35 53 -84 64 -65 102 -77
102 -35 0 14 5 28 10 31 6 3 10 27 11 53 1 64 44 136 84 140 109 13 174 -56
191 -203 5 -46 3 -53 -30 -95 -21 -27 -50 -51 -71 -59 -33 -12 -38 -11 -66 13
-38 32 -45 32 -51 2 -9 -47 21 -69 61 -44 15 9 26 7 56 -11 50 -29 111 -21
151 20 21 22 37 29 65 29 20 0 42 7 49 15 7 8 27 15 45 15 24 0 39 7 54 26 21
26 21 36 21 491 l0 464 -67 31 c-38 17 -81 34 -98 37 -23 5 -31 13 -35 36 -3
18 -12 31 -22 33 -18 3 -18 -3 -1 -45 4 -10 8 -25 9 -33 1 -8 5 -23 9 -34 5
-11 4 -17 -1 -14 -63 30 -99 43 -152 54 -35 8 -70 21 -78 29 -9 9 -25 13 -37
10 -18 -5 -26 2 -41 35 -11 22 -23 40 -27 40 -5 0 -55 -22 -111 -49 -57 -27
-119 -52 -138 -56 -19 -4 -62 -18 -94 -31 -33 -13 -65 -24 -72 -24 -7 0 -39
-18 -70 -40 -32 -22 -66 -40 -76 -40 -23 0 -65 43 -84 85 -9 20 -13 24 -14 12
0 -10 -4 -15 -10 -12 -5 3 -10 0 -11 -7 0 -7 -5 -2 -11 12 -9 21 -12 22 -15 7
-6 -23 35 -144 50 -151 9 -3 8 -5 -1 -5 -7 -1 -10 -7 -7 -13 4 -7 0 -5 -9 6
-8 10 -28 57 -43 104 -16 49 -29 78 -32 67 -6 -33 19 -122 45 -161 14 -20 23
-38 21 -40 -2 -3 -16 13 -31 35 -15 22 -34 42 -42 45 -9 3 -13 10 -10 15 3 5
-1 14 -9 21 -19 16 -65 98 -65 117 0 24 -30 74 -41 67 -6 -3 -9 0 -8 7 5 24
-12 59 -27 59 -8 0 -13 4 -10 9 3 4 -6 23 -20 42 -14 19 -33 51 -41 72 -9 21
-18 35 -21 32 -3 -3 -24 30 -47 72 -66 124 -128 204 -190 246 -22 15 -35 27
-29 27 5 0 16 -6 24 -12 7 -7 -15 21 -51 63 -84 98 -167 165 -232 184 -86 27
-143 33 -174 20z m600 -502 c31 -39 14 -26 -43 34 -41 42 -45 48 -15 23 22
-19 48 -44 58 -57z m-769 17 c-6 -6 -10 -3 -10 10 0 13 4 16 10 10 7 -7 7 -13
0 -20z m96 -46 c36 -9 97 -19 135 -23 41 -3 80 -13 94 -23 14 -10 66 -27 117
-39 93 -21 94 -22 135 -75 38 -50 43 -53 59 -39 9 8 22 15 28 15 6 0 13 8 15
18 4 14 5 13 6 -4 0 -11 12 -31 26 -44 15 -14 25 -35 25 -52 0 -37 19 -36 27
2 3 17 9 30 13 30 12 0 32 -56 28 -81 -5 -38 -32 -52 -41 -21 -6 24 -47 37
-47 15 0 -8 6 -13 13 -10 18 7 12 -328 -8 -405 -15 -60 -42 -119 -70 -153 -16
-19 -16 -19 -5 3 7 13 9 26 6 29 -6 7 -18 -20 -20 -45 -2 -27 -35 -82 -49 -82
-7 0 -32 -20 -56 -44 -48 -48 -109 -72 -159 -61 -16 3 -61 33 -98 66 -38 33
-97 77 -132 97 -63 37 -68 53 -12 33 29 -10 35 -5 31 22 -3 22 35 1 71 -38 41
-44 61 -54 73 -35 3 5 0 7 -9 4 -9 -3 -27 5 -43 20 -21 20 -24 26 -11 26 9 0
19 -4 22 -9 16 -26 151 25 175 67 7 10 11 12 11 4 0 -7 -17 -29 -37 -47 -21
-19 -32 -35 -24 -35 26 0 -9 -29 -50 -42 -62 -18 -47 -41 26 -40 98 2 155 55
155 146 0 38 3 47 14 43 18 -7 24 16 15 65 -4 26 -2 41 7 49 8 6 14 8 14 4 0
-5 3 -6 6 -3 6 7 -11 45 -33 69 -13 15 -18 15 -62 -2 -48 -18 -48 -18 -100 7
-29 13 -56 24 -60 24 -3 0 -7 -19 -7 -42 -2 -43 -24 -71 -48 -62 -15 6 -40
-21 -33 -33 3 -5 -4 -10 -15 -10 -24 -2 -62 -34 -51 -44 5 -3 26 -12 48 -19
34 -11 37 -14 20 -21 -26 -10 -97 -11 -112 -1 -6 4 -13 21 -16 38 -3 17 -11
44 -19 59 l-15 28 -11 -45 c-32 -127 -149 -95 -168 46 -8 54 5 75 41 68 40 -7
69 5 88 38 12 20 14 30 6 30 -7 0 -5 8 6 20 18 20 18 21 -8 48 -26 25 -34 27
-127 30 l-100 4 0 86 c0 48 5 104 11 125 8 31 83 138 109 157 4 3 11 15 14 28
4 12 18 33 31 46 13 13 21 27 17 30 -3 4 2 4 12 0 14 -5 17 -4 11 5 -5 10 -2
12 11 7 11 -3 48 -13 84 -22z m874 -250 c3 -8 2 -12 -4 -9 -6 3 -10 10 -10 16
0 14 7 11 14 -7z m1164 -179 c-2 -6 -7 -9 -12 -7 -4 1 -13 -4 -20 -13 -7 -10
-18 -14 -29 -9 -25 9 -21 19 16 30 37 13 50 12 45 -1z m-238 -62 c0 -26 -16
-47 -29 -39 -15 10 -14 43 2 49 22 9 27 7 27 -10z m-1968 -32 c-11 -6 -10 -10
4 -15 20 -8 10 -20 -25 -31 -16 -5 -21 -4 -17 4 4 6 0 14 -10 18 -16 6 -15 7
2 20 10 7 27 13 38 13 16 0 17 -3 8 -9z m1994 -26 c4 -8 3 -23 0 -32 -6 -15
-8 -15 -22 -2 -8 9 -12 23 -8 32 8 21 23 22 30 2z m-1516 -115 c0 -5 -7 -7
-15 -4 -8 4 -12 10 -9 15 6 11 24 2 24 -11z m28 -44 c-10 -24 -77 -60 -88 -49
-3 3 1 8 8 10 6 3 12 10 12 16 0 19 33 47 56 47 21 0 23 -2 12 -24z m1206 -17
c18 -14 24 -25 18 -31 -13 -13 -72 18 -72 37 0 21 23 18 54 -6z m-1218 -76
c-11 -11 -17 4 -9 23 7 18 8 18 11 1 2 -10 1 -21 -2 -24z m72 -16 c-1 -18 -10
-41 -20 -51 -17 -18 -17 -18 -12 5 5 23 11 55 13 72 1 4 6 7 11 7 6 0 10 -15
8 -33z m-106 -9 c-15 -15 -26 -4 -18 18 5 13 9 15 18 6 9 -9 9 -15 0 -24z
m-25 -15 c10 -30 -113 -51 -140 -24 -10 10 70 24 84 16 5 -4 9 1 9 10 0 19 41
17 47 -2z m1049 2 c27 -8 58 -15 69 -15 18 0 73 -55 99 -98 10 -17 -11 -42
-35 -42 -14 0 -19 7 -19 30 l0 31 -27 -21 c-62 -45 -149 -26 -165 37 -4 17
-15 36 -23 43 -20 17 -19 37 3 43 32 8 48 7 98 -8z m-395 -162 c13 -17 13 -17
-6 -3 -11 8 -22 16 -24 17 -2 2 0 3 6 3 6 0 17 -8 24 -17z m369 -38 c10 -12 9
-16 -4 -21 -18 -7 -49 13 -40 27 8 14 30 11 44 -6z m-956 -322 c4 -9 1 -20 -6
-25 -10 -6 -9 -8 3 -8 22 0 64 -120 47 -133 -10 -6 -9 -8 3 -4 11 4 21 -5 32
-28 17 -36 16 -38 -28 -55 -23 -9 -26 -8 -21 5 3 10 -1 15 -12 15 -14 0 -12 5
8 21 24 20 24 20 2 9 -29 -14 -40 -6 -22 15 11 13 10 14 -5 8 -14 -5 -17 -3
-12 10 3 8 3 17 -1 19 -4 2 -15 23 -25 48 -17 43 -17 46 0 59 17 12 16 13 -4
6 -33 -9 -28 11 5 24 l27 11 -27 -4 c-31 -4 -39 10 -10 17 32 9 40 7 46 -10z
m-701 -290 c-7 -2 -21 -2 -30 0 -10 3 -4 5 12 5 17 0 24 -2 18 -5z m-301 -35
c-9 -9 -15 -9 -24 0 -10 10 -10 15 2 22 20 12 38 -6 22 -22z m148 28 c0 -2 -8
-10 -17 -17 -16 -13 -17 -12 -4 4 13 16 21 21 21 13z m243 -3 c-7 -2 -19 -2
-25 0 -7 3 -2 5 12 5 14 0 19 -2 13 -5z m724 -49 c-16 -9 -31 -13 -34 -10 -3
3 5 10 18 15 37 15 47 12 16 -5z m19 -19 c-20 -15 -36 -19 -36 -10 0 5 38 23
50 24 3 0 -4 -6 -14 -14z m14 -25 c0 -5 -8 -10 -17 -10 -15 0 -16 2 -3 10 19
12 20 12 20 0z m-1011 -854 c13 -13 11 -21 -10 -60 -19 -37 -52 -66 -74 -66
-11 0 -3 34 16 71 19 37 19 42 5 58 -9 10 -16 20 -16 24 0 10 63 -12 79 -27z
m65 -32 c16 -6 23 -34 8 -34 -4 0 -15 9 -25 20 -17 20 -11 25 17 14z"/>
<path d="M4916 3082 c-3 -5 4 -18 17 -28 21 -19 21 -19 7 0 -8 11 -13 21 -12
23 2 3 1 7 -1 9 -3 3 -8 1 -11 -4z"/>
<path d="M4553 3055 c-3 -8 -11 -15 -19 -15 -7 0 -42 -28 -78 -62 -73 -70 -73
-71 -28 -156 20 -37 25 -42 35 -29 14 17 52 27 116 33 24 2 54 10 66 18 24 16
71 76 60 76 -4 0 3 16 15 36 32 56 22 67 -52 59 -34 -4 -74 -11 -89 -15 -20
-6 -29 -4 -33 6 -5 13 30 34 94 56 8 3 -7 6 -33 6 -34 1 -50 -3 -54 -13z m82
-91 c-22 -13 -39 -29 -38 -34 2 -5 -11 -17 -28 -26 -21 -10 -29 -11 -23 -3 5
9 2 10 -11 5 -14 -5 -16 -4 -7 7 7 8 9 17 5 21 -4 3 2 13 13 21 22 17 38 20
29 5 -3 -5 14 -1 37 10 60 27 71 24 23 -6z"/>
<path d="M4865 2541 c-3 -6 -3 -21 1 -35 8 -32 33 -24 26 10 -5 27 -18 39 -27
25z"/>
<path d="M4700 1850 c-8 -5 -10 -10 -5 -10 6 0 17 5 25 10 8 5 11 10 5 10 -5
0 -17 -5 -25 -10z"/>
<path d="M2016 3599 c-4 -39 -4 -170 0 -291 l7 -219 -23 -24 -23 -25 23 -25
c22 -24 24 -24 43 -8 19 18 36 19 314 21 110 1 153 13 90 27 -32 7 -64 8 -147
5 -25 0 -67 2 -93 6 -42 5 -51 11 -73 45 -13 21 -24 50 -24 64 0 43 -76 481
-85 493 -1 1 -6 -30 -9 -69z"/>
<path d="M2899 3609 c-25 -4 -60 -14 -78 -23 -17 -9 -35 -14 -40 -12 -5 3 -27
-8 -50 -24 -22 -17 -44 -30 -48 -30 -5 0 -16 -14 -25 -31 -10 -17 -12 -27 -5
-22 6 4 18 8 26 10 8 1 17 5 20 10 3 4 14 14 23 21 14 12 16 10 10 -10 -5 -21
-4 -22 14 -8 18 14 18 14 5 -2 -7 -10 -17 -16 -21 -13 -4 3 -14 -3 -21 -13
-13 -16 -13 -16 5 -2 18 14 19 13 13 -2 -9 -24 2 -23 32 5 21 18 23 18 10 2
-9 -11 -20 -27 -24 -35 -8 -13 -7 -13 10 0 19 15 19 14 3 -11 -17 -26 -10 -57
10 -45 6 4 12 -5 14 -21 3 -30 45 -58 63 -43 5 4 24 10 40 12 19 2 29 8 27 17
-2 8 3 11 12 8 10 -4 13 3 12 29 -1 19 -1 34 1 34 15 0 30 -15 26 -26 -4 -10
0 -12 11 -8 16 6 20 -6 17 -51 -2 -15 0 -17 7 -6 10 14 36 6 27 -9 -7 -11 30
-32 39 -23 3 3 6 15 6 26 0 12 5 17 14 14 8 -3 16 -1 18 5 2 6 16 11 31 11 15
0 27 4 27 9 0 6 8 4 17 -3 15 -12 16 -12 10 3 -4 12 0 19 14 23 20 7 20 7 -2
31 -28 30 -14 32 18 2 l23 -21 0 21 c0 11 -4 24 -10 27 -5 3 -10 11 -10 17 0
6 8 4 18 -5 25 -23 35 -21 22 2 -13 26 -13 32 3 29 6 -2 21 -16 31 -32 12 -17
22 -24 24 -17 3 8 8 6 17 -6 9 -12 10 -22 4 -30 -7 -8 -3 -24 11 -50 19 -35
20 -36 14 -8 -4 17 -8 42 -9 57 -6 58 -133 169 -198 172 -17 1 -32 7 -35 14
-2 6 -13 12 -23 12 -11 0 -28 4 -37 9 -25 13 -110 18 -163 10z m156 -169 c3
-5 2 -10 -4 -10 -5 0 -13 5 -16 10 -3 6 -2 10 4 10 5 0 13 -4 16 -10z m-196
-71 c-10 -6 -11 -9 -1 -9 13 0 17 -29 5 -31 -52 -8 -67 -7 -50 2 9 6 17 16 17
22 0 18 21 37 33 30 5 -3 3 -9 -4 -14z m236 1 c3 -6 -1 -7 -9 -4 -18 7 -21 14
-7 14 6 0 13 -4 16 -10z m-45 -60 c0 -5 -5 -10 -11 -10 -5 0 -7 5 -4 10 3 6 8
10 11 10 2 0 4 -4 4 -10z"/>
<path d="M5920 3516 c0 -7 37 -27 71 -36 36 -11 39 7 4 20 -40 15 -75 23 -75
16z"/>
<path d="M5876 3496 c3 -9 18 -16 32 -16 29 0 20 14 -15 25 -18 5 -22 3 -17
-9z"/>
<path d="M5800 3475 c0 -6 5 -16 11 -22 6 -6 8 -17 3 -24 -5 -9 -10 -5 -16 12
-9 22 -10 23 -22 7 -7 -10 -20 -18 -28 -18 -9 0 -22 -7 -29 -16 -12 -15 -10
-16 16 -11 17 3 49 9 73 12 23 4 40 11 36 16 -3 5 0 9 5 9 6 0 11 -6 11 -14 0
-10 7 -12 23 -8 18 5 19 7 5 10 -10 2 -18 7 -18 12 0 9 -27 20 -44 19 -5 0
-13 5 -17 13 -5 7 -9 8 -9 3z"/>
<path d="M6065 3466 c18 -13 18 -14 -3 -20 -12 -4 -27 -4 -33 0 -6 4 -26 10
-45 14 -31 7 -33 6 -36 -24 l-3 -31 -70 -3 c-127 -5 -202 -27 -279 -79 -62
-43 -126 -117 -126 -146 0 -5 29 18 65 52 36 33 70 61 75 61 14 0 18 -23 7
-47 -10 -23 7 -83 19 -70 9 9 11 107 2 107 -4 0 -8 5 -8 10 0 6 4 10 9 10 11
0 16 -16 26 -73 3 -21 10 -35 16 -32 5 4 7 18 3 33 l-5 27 15 -25 15 -25 2 25
c1 22 2 20 11 -9 7 -26 12 -31 19 -20 5 8 9 24 9 37 0 13 4 20 10 17 6 -3 10
0 10 7 0 9 3 9 11 -2 9 -13 10 -13 8 0 -4 42 2 60 20 60 11 0 23 5 26 10 13
21 57 9 90 -24 19 -18 35 -38 35 -45 0 -6 7 -11 16 -11 8 0 13 4 10 9 -3 5 1
12 10 15 12 4 15 2 10 -9 -3 -8 -1 -14 3 -12 5 1 24 -14 44 -34 26 -27 46 -38
78 -42 24 -3 49 -1 55 4 7 6 20 2 37 -11 30 -24 33 -24 40 -6 3 8 -4 27 -16
42 l-21 27 22 -5 c12 -3 21 -3 20 1 0 3 0 21 1 39 2 51 16 37 18 -17 1 -28 9
-61 19 -77 l18 -27 -23 13 c-23 12 -24 11 -18 -19 5 -24 3 -30 -6 -26 -6 4 -4
0 7 -9 13 -11 17 -22 12 -40 -3 -15 -4 -26 -1 -26 13 0 36 66 41 119 6 50 3
66 -16 103 -13 24 -26 56 -29 72 -4 16 -15 34 -26 40 -11 6 -35 21 -53 34 -30
22 -142 72 -159 72 -4 0 2 -6 12 -14z m81 -53 c-3 -3 3 -17 14 -31 11 -13 17
-28 14 -33 -8 -14 -34 -10 -40 6 -5 12 -9 12 -27 0 -19 -12 -25 -11 -45 5 -15
13 -21 24 -15 32 4 7 8 16 9 21 1 4 2 8 3 10 0 1 22 1 47 -1 25 -2 43 -6 40
-9z m-266 -53 c17 -5 -5 -8 -65 -8 -59 0 -83 2 -70 8 25 11 102 11 135 0z
m-114 -39 c-4 -5 -1 -11 6 -13 6 -2 9 -12 5 -21 -5 -14 -10 -15 -25 -6 -18 11
-18 14 -3 31 16 19 26 24 17 9z m465 -58 c13 -16 12 -17 -3 -4 -10 7 -18 15
-18 17 0 8 8 3 21 -13z"/>
<path d="M2666 3394 c-9 -22 -8 -23 13 -17 12 3 17 11 14 19 -7 19 -19 18 -27
-2z"/>
<path d="M2670 3360 c-12 -8 -11 -10 7 -10 12 0 25 5 28 10 8 13 -15 13 -35 0z"/>
<path d="M1137 3354 c-3 -4 -21 -8 -38 -10 -66 -8 -169 -93 -203 -168 l-17
-39 27 18 c14 9 23 11 19 4 -6 -8 -4 -10 4 -5 7 5 10 14 7 22 -3 8 -2 13 2 12
4 -1 42 33 85 75 42 42 73 71 67 65 -5 -7 -10 -18 -10 -26 0 -12 3 -12 18 -1
15 13 16 12 3 -3 -7 -10 -17 -15 -22 -12 -5 3 -9 0 -9 -5 0 -6 -8 -11 -18 -11
-20 0 -115 -107 -106 -121 3 -5 1 -9 -5 -9 -12 0 -8 -27 7 -42 7 -7 8 -17 2
-29 -7 -12 -6 -20 2 -25 7 -4 10 -4 6 0 -3 4 7 20 24 36 18 17 27 34 22 41 -5
8 -3 9 6 4 10 -6 12 -4 7 9 -4 9 -3 15 1 13 10 -7 32 19 24 29 -4 4 -1 4 6 0
9 -6 8 -14 -7 -34 -17 -24 -51 -97 -51 -109 0 -3 7 0 15 7 8 7 15 18 15 25 0
16 44 35 59 25 8 -4 2 -9 -18 -13 -17 -4 -30 -10 -29 -14 1 -5 -3 -18 -10 -30
-11 -19 -10 -22 3 -17 8 4 18 17 21 30 5 21 26 36 23 17 -4 -24 3 -25 18 -3
10 14 17 27 16 30 0 3 6 11 14 19 13 12 14 11 8 -10 -4 -13 -12 -26 -16 -27
-5 -2 -7 -7 -4 -12 3 -4 -2 -13 -10 -20 -17 -14 -20 -40 -4 -40 5 0 8 -4 4 -9
-3 -5 -1 -12 4 -16 15 -9 39 34 47 83 4 23 9 44 13 46 9 6 7 -87 -3 -102 -4
-7 -5 -16 -2 -19 3 -4 6 -1 6 6 0 7 5 9 10 6 6 -4 10 11 11 37 1 24 3 35 6 26
5 -19 18 -24 26 -10 2 4 2 1 1 -5 -2 -7 3 -13 11 -13 11 0 15 12 15 48 0 62
16 37 19 -30 1 -28 4 -55 8 -61 8 -13 21 18 24 58 1 21 4 16 9 -20 l6 -50 13
32 c9 23 17 30 29 26 11 -5 14 -2 9 10 -4 9 -10 24 -14 34 -4 11 -3 14 6 9 6
-4 -2 20 -19 53 -17 34 -28 65 -25 71 3 5 0 10 -8 10 -8 0 -19 10 -26 23 -9
18 -11 8 -7 -58 2 -48 1 -72 -4 -60 -5 11 -9 50 -9 86 -1 51 -5 68 -17 73 -8
3 -12 11 -9 16 4 7 17 1 33 -16 15 -14 40 -36 57 -47 28 -20 29 -20 15 -2 -8
11 -19 23 -25 27 -7 5 -7 8 0 8 5 0 -11 15 -37 34 -26 18 -45 36 -41 40 3 3
-3 6 -15 6 -11 0 -24 -5 -27 -10 -4 -6 -11 -7 -17 -4 -6 4 -8 3 -5 -2 3 -6 2
-16 -4 -24 -7 -12 -9 -12 -9 -1 0 11 -3 11 -16 1 -13 -12 -14 -10 -3 13 6 14
19 28 28 30 14 4 14 5 0 6 -9 0 -18 -2 -22 -5z m68 -24 c-3 -5 -2 -18 3 -27 5
-10 6 -27 1 -38 -6 -16 -8 -14 -8 13 -1 17 -4 31 -8 31 -22 -4 -25 3 -7 16 23
17 27 18 19 5z m-79 -68 c-17 -16 -18 -16 -5 5 7 12 15 20 18 17 3 -2 -3 -12
-13 -22z m28 -30 c3 -5 -1 -9 -9 -9 -8 0 -12 4 -9 9 3 4 7 8 9 8 2 0 6 -4 9
-8z m-120 -20 c3 -5 -1 -9 -9 -9 -8 0 -12 4 -9 9 3 4 7 8 9 8 2 0 6 -4 9 -8z
m123 -34 c-3 -7 -5 -2 -5 12 0 14 2 19 5 13 2 -7 2 -19 0 -25z m-136 -11 c-10
-9 -11 -8 -5 6 3 10 9 15 12 12 3 -3 0 -11 -7 -18z m173 -7 c-6 -6 -10 -3 -10
10 0 13 4 16 10 10 7 -7 7 -13 0 -20z m-113 -37 c-12 -20 -14 -14 -5 12 4 9 9
14 11 11 3 -2 0 -13 -6 -23z m146 5 c-3 -8 -6 -5 -6 6 -1 11 2 17 5 13 3 -3 4
-12 1 -19z m-253 -23 c3 -8 1 -15 -4 -15 -6 0 -10 7 -10 15 0 8 2 15 4 15 2 0
6 -7 10 -15z m213 -17 c-3 -7 -5 -2 -5 12 0 14 2 19 5 13 2 -7 2 -19 0 -25z"/>
<path d="M2716 3351 c-3 -5 3 -11 13 -14 14 -3 18 -1 14 9 -6 16 -19 18 -27 5z"/>
<path d="M3233 3328 c1 -7 -5 -13 -13 -13 -20 0 -48 -27 -43 -41 4 -10 54 -24
98 -29 21 -2 36 -18 31 -32 -3 -8 -1 -24 5 -35 10 -18 9 -20 -5 -15 -10 4 -16
1 -16 -7 0 -8 -7 -16 -15 -19 -16 -7 -80 -101 -90 -134 -4 -15 1 -29 15 -43
12 -12 20 -23 18 -25 -1 -1 -29 -10 -60 -19 -94 -27 -141 -56 -151 -95 -5 -20
-4 -45 2 -63 6 -17 8 -34 5 -39 -2 -5 -6 -24 -8 -44 -1 -22 -13 -46 -30 -64
l-28 -29 26 -18 c15 -9 33 -29 41 -44 14 -27 14 -28 -18 -35 -18 -3 -43 -8
-57 -9 -57 -7 -101 -19 -107 -29 -4 -7 8 -8 37 -3 64 10 130 -2 130 -24 0 -14
-7 -18 -31 -16 -19 0 -34 -5 -37 -12 -3 -10 4 -12 28 -9 17 3 47 3 65 0 41 -7
50 -39 23 -83 -10 -17 -16 -35 -13 -40 3 -5 -15 -12 -40 -16 -35 -5 -62 -1
-108 14 -33 12 -62 20 -63 19 -1 -1 23 -22 54 -47 57 -45 76 -81 61 -112 -7
-13 0 -19 38 -32 114 -39 190 -27 237 37 21 29 21 27 14 198 -2 24 9 57 29 95
21 40 40 102 58 189 23 110 26 146 22 235 -4 91 -3 102 9 85 25 -33 24 -161
-2 -269 -14 -55 -14 -70 -4 -76 31 -19 56 12 112 138 54 120 56 128 40 145
-12 14 -25 17 -50 13 -38 -6 -38 -8 -11 86 11 40 11 66 0 155 -7 60 -13 117
-13 128 0 11 -2 15 -5 8 -5 -15 -33 -5 -33 12 0 17 -62 66 -77 61 -7 -3 -15
-1 -18 4 -9 15 -55 12 -52 -2z m-33 -457 c0 -6 -5 -13 -11 -16 -6 -4 -8 -13
-5 -21 3 -8 -1 -14 -9 -14 -8 0 -15 -4 -15 -10 0 -5 -10 -10 -23 -10 -32 0
-34 38 -2 50 13 5 26 14 30 19 8 14 35 14 35 2z m43 -143 c15 -12 15 -18 3
-63 -7 -27 -25 -73 -39 -102 -15 -29 -27 -59 -27 -67 0 -8 -12 -33 -27 -55
-31 -48 -60 -52 -55 -8 3 22 -3 31 -32 48 -20 11 -36 26 -36 32 0 6 14 22 31
36 28 24 29 29 20 55 -22 57 -29 105 -17 115 6 6 41 12 76 14 36 2 70 4 76 5
5 1 18 -4 27 -10z"/>
<path d="M2615 3321 c-3 -6 3 -9 14 -8 11 0 17 5 15 9 -7 11 -22 10 -29 -1z"/>
<path d="M2695 3320 c-16 -7 -17 -9 -3 -9 9 -1 20 4 23 9 7 11 7 11 -20 0z"/>
<path d="M6357 3295 c15 -28 33 -142 33 -204 0 -30 4 -50 9 -46 5 3 12 -5 14
-17 2 -13 3 18 2 67 -2 94 -25 184 -53 207 -13 11 -14 10 -5 -7z"/>
<path d="M5205 3240 c-3 -5 -1 -10 4 -10 6 0 11 5 11 10 0 6 -2 10 -4 10 -3 0
-8 -4 -11 -10z"/>
<path d="M5571 3218 c-6 -16 -15 -28 -20 -28 -13 0 -43 -50 -51 -87 -10 -40
-6 -42 15 -5 l16 27 -5 -32 c-8 -47 -1 -41 18 16 19 58 19 64 6 56 -18 -11
-11 4 15 29 l24 24 -5 -31 c-4 -30 -4 -30 7 -9 9 16 9 28 2 45 l-11 22 -11
-27z"/>
<path d="M6425 3224 c5 -18 35 -184 35 -191 0 -2 10 -2 23 -1 18 2 22 7 21 29
-2 30 -23 73 -31 65 -3 -3 0 -12 6 -20 7 -8 9 -21 5 -27 -4 -8 -3 -9 4 -5 8 5
10 1 5 -9 -4 -13 -8 -14 -14 -4 -4 7 -5 17 -2 21 2 5 -1 15 -7 23 -6 8 -9 18
-6 23 3 6 -5 34 -19 63 -14 30 -23 45 -20 33z"/>
<path d="M1330 3206 c0 -2 8 -10 18 -17 15 -13 16 -12 3 4 -13 16 -21 21 -21
13z"/>
<path d="M2512 3173 c-14 -36 -5 -186 16 -248 l21 -60 -5 70 c-3 39 -10 82
-14 97 -6 18 -4 46 5 80 11 44 11 54 -1 65 -12 12 -15 12 -22 -4z"/>
<path d="M1329 3162 c5 -9 19 -26 32 -37 19 -16 18 -13 -5 18 -30 39 -43 49
-27 19z"/>
<path d="M6050 3116 c0 -9 -9 -12 -27 -10 -25 4 -24 2 7 -10 19 -8 55 -14 80
-14 37 0 40 1 20 8 -14 4 -18 9 -10 9 10 1 6 7 -10 16 -32 18 -60 19 -60 1z"/>
<path d="M6271 3074 c0 -11 3 -14 6 -6 3 7 2 16 -1 19 -3 4 -6 -2 -5 -13z"/>
<path d="M5770 3077 c0 -4 9 -25 19 -46 20 -38 51 -71 51 -53 0 5 -7 15 -16
23 -8 7 -24 29 -34 48 -11 20 -19 32 -20 28z"/>
<path d="M6235 3070 c3 -5 8 -10 11 -10 2 0 4 5 4 10 0 6 -5 10 -11 10 -5 0
-7 -4 -4 -10z"/>
<path d="M5549 3002 c-2 -28 0 -53 5 -55 5 -2 4 -13 -3 -24 -6 -12 -11 -32
-10 -45 1 -23 1 -23 8 2 7 24 8 25 15 3 7 -21 34 -38 44 -28 3 3 0 11 -6 17
-16 16 -15 31 0 22 6 -4 2 9 -11 29 -12 20 -26 58 -30 85 l-7 47 -5 -53z"/>
<path d="M106 3010 c-27 -11 -62 -32 -78 -46 l-28 -28 0 -154 c0 -143 1 -153
17 -141 15 13 15 12 0 -17 -14 -28 -16 -83 -17 -429 l0 -398 30 -28 c16 -16
30 -38 30 -50 l0 -20 -30 21 c-29 20 -30 21 -30 2 0 -24 27 -48 67 -63 18 -6
42 -27 57 -49 30 -46 31 -50 11 -50 -8 0 -22 -12 -32 -26 -13 -21 -19 -24 -27
-13 -6 8 -26 24 -44 37 l-32 23 0 -42 c0 -35 8 -50 50 -101 54 -64 58 -75 35
-84 -22 -9 -18 -33 10 -70 32 -42 32 -49 -3 -30 -72 40 -92 47 -92 33 0 -8 25
-24 56 -37 58 -25 74 -43 74 -82 0 -13 13 -49 29 -81 l29 -58 -53 6 c-29 4
-72 4 -94 0 -35 -6 -41 -11 -41 -30 0 -24 0 -24 41 -10 50 18 76 19 118 4 34
-12 40 -25 14 -32 -12 -3 -9 -5 8 -6 15 0 32 -8 39 -16 10 -13 9 -15 -11 -16
-43 -1 -78 -9 -142 -32 -58 -21 -62 -24 -65 -56 l-3 -33 29 21 c44 31 154 81
178 81 12 0 32 -9 45 -20 l24 -19 -33 -1 c-23 0 -41 -8 -57 -26 -45 -48 -29
-57 38 -22 26 13 58 20 84 19 23 0 45 3 48 9 11 17 61 11 80 -10 12 -13 31
-20 56 -20 21 0 91 -10 156 -21 89 -16 176 -22 350 -26 128 -3 240 -3 249 1
14 5 14 7 0 22 -20 20 -20 38 0 55 14 12 20 9 45 -20 28 -34 29 -34 69 -22 22
6 40 18 40 26 0 7 -45 133 -100 280 -55 146 -100 270 -100 276 0 6 7 9 16 7
10 -2 30 -41 53 -103 103 -275 164 -431 173 -442 7 -8 17 -9 34 -2 37 14 70
11 85 -7 7 -9 33 -29 57 -46 42 -29 47 -30 81 -18 20 7 38 16 41 20 3 5 26 11
51 15 43 6 48 5 78 -27 39 -41 48 -72 27 -94 -9 -8 -13 -21 -9 -27 3 -7 3 -9
-1 -5 -16 14 -151 -64 -164 -94 -9 -19 -18 -5 -14 21 3 20 -5 40 -26 69 -28
40 -42 44 -42 14 0 -8 -12 -31 -27 -51 -16 -20 -28 -45 -28 -56 0 -17 -11 -21
-85 -33 -89 -13 -119 -16 -135 -11 -15 4 -85 -12 -85 -20 0 -3 -25 -4 -55 -3
-30 2 -76 -1 -102 -8 -26 -6 -60 -14 -75 -17 -15 -3 -29 -11 -32 -19 -4 -11 6
-14 43 -14 27 0 51 -4 53 -9 2 -5 65 -5 147 0 104 6 150 5 165 -3 20 -11 19
-12 -14 -20 -19 -4 -116 -9 -215 -12 -311 -7 -497 -17 -579 -32 -97 -17 -299
-19 -329 -2 -12 7 -29 12 -37 13 -8 0 -19 12 -24 27 -12 33 14 68 51 68 13 0
23 6 23 15 0 8 12 26 27 41 18 18 23 29 15 32 -18 6 -14 23 4 20 32 -6 25 20
-7 27 -19 4 -33 15 -36 26 -4 13 -11 18 -22 15 -9 -3 -22 -2 -30 3 -14 9 -45
-5 -81 -36 -8 -7 -29 -24 -46 -37 -40 -33 -101 -155 -82 -168 8 -5 3 -6 -15
-2 l-27 6 0 -96 0 -96 76 1 75 1 -19 22 c-43 47 -59 126 -26 126 34 0 54 -20
54 -55 0 -43 50 -94 91 -95 15 0 31 -6 37 -13 6 -7 23 -14 39 -15 42 -3 59
-25 44 -58 -6 -15 -10 -28 -8 -31 8 -7 221 18 244 29 12 6 33 36 47 68 l26 58
138 6 c75 3 180 11 232 17 234 27 264 29 280 13 10 -10 11 -14 2 -14 -16 0
-15 -27 2 -33 7 -3 39 -3 70 0 51 5 56 4 56 -15 0 -27 34 -34 54 -11 19 23 32
24 40 4 5 -13 26 -16 118 -16 62 0 122 0 132 0 11 0 27 -4 36 -9 10 -5 66 -12
126 -15 l109 -5 -4 -90 -3 -90 321 0 321 0 -1 28 c0 15 -4 36 -9 47 -8 20 -9
20 -9 -1 -1 -30 -30 -51 -79 -57 -34 -4 -44 -2 -52 13 -13 24 -13 161 0 195
16 41 -3 65 -49 65 -24 0 -47 8 -62 21 -21 18 -25 18 -35 5 -17 -23 -86 -21
-101 3 -9 15 -8 23 3 40 9 12 13 30 9 40 -5 17 -10 18 -53 7 -28 -8 -47 -18
-47 -27 0 -7 -9 -15 -20 -18 -11 -2 -27 -12 -36 -22 -20 -23 -54 -24 -93 -4
-36 19 -37 19 -29 -2 6 -16 4 -16 -15 1 -12 11 -22 14 -22 8 0 -7 -8 -12 -17
-12 -15 0 -15 1 2 13 10 8 15 19 11 25 -5 8 -2 10 8 6 9 -3 16 -10 16 -14 0
-5 9 -6 20 -3 26 7 20 27 -9 31 -12 2 -21 7 -19 12 4 11 114 154 146 188 12
14 22 36 22 49 l0 25 91 -8 91 -7 -7 24 c-4 13 -13 31 -20 39 -6 8 -17 29 -24
45 -6 17 -21 41 -31 55 -17 21 -21 23 -30 10 -5 -8 -10 -11 -10 -7 0 4 -15 -4
-34 -18 l-33 -25 -7 31 c-4 19 1 53 11 85 16 51 16 54 -2 74 -17 19 -18 28 -7
103 6 46 9 97 7 113 -2 16 -6 56 -9 89 -3 37 -11 64 -21 71 -8 6 -15 23 -15
37 0 14 -4 28 -10 32 -15 9 -38 -46 -53 -126 -13 -75 -33 -94 -30 -29 3 69 -9
190 -19 184 -12 -7 -82 5 -74 13 3 4 25 5 48 5 76 -4 114 26 132 102 l7 29
-26 -31 c-29 -35 -93 -77 -102 -68 -4 3 -1 6 6 6 7 0 9 5 6 10 -4 6 -10 8 -15
5 -5 -3 -12 0 -16 6 -4 7 -3 9 3 6 9 -6 24 10 88 91 5 7 15 18 22 25 9 9 5 17
-15 34 -27 23 -24 32 13 46 6 3 7 7 3 11 -3 4 -18 0 -32 -9 -14 -9 -30 -14
-36 -10 -6 4 -9 1 -8 -7 2 -7 -4 -12 -12 -10 -8 2 -12 0 -8 -4 10 -9 -30 -29
-76 -38 -27 -5 -44 -3 -62 9 -13 8 -24 13 -24 9 0 -4 -6 -2 -12 3 -16 11 -25
10 -61 -7 -24 -12 -30 -12 -38 1 -24 39 -5 109 56 199 41 61 46 56 -70 95 -44
15 -98 36 -120 46 -22 10 -54 20 -72 22 -17 3 -36 8 -42 11 -5 3 -19 -6 -31
-21 -18 -23 -20 -35 -15 -75 5 -35 2 -62 -11 -99 -19 -51 -19 -51 -55 -45
-150 24 -374 160 -425 258 -18 35 -19 35 14 41 39 8 68 36 88 85 13 34 16 65
12 156 l-4 114 28 -8 c15 -5 32 -11 38 -15 6 -4 30 -3 52 0 31 6 53 19 85 51
23 24 48 44 54 44 7 0 21 7 30 16 20 18 73 28 63 13 -9 -15 -24 -72 -17 -65 3
3 11 -4 17 -17 9 -17 21 -23 56 -25 52 -3 116 26 114 52 -1 9 3 16 9 16 6 0 8
2 5 5 -3 3 -16 1 -30 -4 -15 -5 -30 -6 -39 0 -10 6 -8 9 11 9 18 0 21 3 11 9
-20 13 8 20 37 9 13 -4 28 -6 33 -2 23 14 41 73 47 157 l7 92 6 -65 6 -65 3
65 c2 57 4 61 10 30 7 -32 7 -33 9 -7 1 37 -28 165 -40 172 -12 8 -12 5 6 -45
19 -53 19 -88 0 -40 -7 19 -14 27 -14 18 -1 -9 -6 -20 -12 -24 -8 -4 -9 1 -4
17 4 13 4 21 0 17 -4 -4 -20 18 -36 49 -15 30 -33 61 -39 67 -7 6 -4 -5 6 -24
22 -44 28 -126 7 -109 -7 6 -13 18 -13 25 0 8 -5 14 -11 14 -6 0 -8 -8 -5 -17
18 -61 13 -68 -9 -14 -31 79 -40 89 -32 36 6 -39 6 -39 -9 -15 -15 25 -15 24
-9 -15 l5 -40 -19 34 -19 35 -6 -31 c-4 -17 -4 -43 -1 -59 6 -27 5 -26 -11 6
-17 35 -17 35 -24 10 -5 -14 -9 -45 -10 -70 l-2 -45 -13 40 c-9 27 -13 33 -14
18 -2 -36 -18 -35 -25 2 -4 19 -11 37 -15 40 -5 3 -7 -5 -3 -17 3 -14 2 -19
-6 -14 -7 4 -13 15 -13 24 -1 9 -5 4 -9 -13 -4 -16 -8 -22 -9 -12 0 10 -5 15
-11 12 -6 -4 -10 5 -10 21 0 49 -10 19 -19 -57 l-8 -74 -2 65 c-2 56 -4 61
-13 40 l-11 -25 -10 35 -10 35 -13 -32 c-7 -17 -17 -60 -22 -95 l-10 -63 -1
55 c-1 30 -6 62 -11 70 -5 8 -10 11 -10 6 0 -6 -7 -1 -15 10 -13 18 -14 16
-16 -21 -1 -22 -3 -31 -6 -20 -10 44 -12 47 -27 33 -8 -7 -12 -16 -10 -20 2
-4 0 -10 -6 -13 -6 -4 -10 -3 -9 2 4 21 -2 34 -12 27 -6 -3 -15 0 -20 7 -6 10
-9 3 -11 -21 -4 -79 -3 -130 5 -130 4 0 7 -7 7 -16 0 -10 -8 -6 -25 14 -14 17
-25 33 -25 37 0 3 -14 18 -30 32 -17 13 -30 30 -30 36 0 6 -26 38 -57 71 -32
32 -52 56 -45 52 6 -4 12 -2 12 4 0 7 -7 10 -15 6 -9 -3 -23 1 -33 9 -88 71
-149 107 -262 152 -23 10 -89 16 -195 18 -140 4 -166 2 -209 -15z m1471 -252
c-3 -8 -6 -5 -6 6 -1 11 2 17 5 13 3 -3 4 -12 1 -19z m-1450 -190 c-3 -8 -6
-5 -6 6 -1 11 2 17 5 13 3 -3 4 -12 1 -19z m123 -19 c0 -11 -4 -18 -10 -14 -5
3 -7 12 -3 20 7 21 13 19 13 -6z m-89 -26 c1 -23 3 -30 6 -18 3 11 12 29 20
40 13 18 14 17 7 -20 -3 -22 -12 -51 -19 -65 -7 -14 -18 -37 -25 -52 -7 -15
-17 -25 -22 -22 -10 7 -23 -27 -27 -70 -1 -4 -8 -6 -16 -2 -12 4 -14 0 -9 -22
6 -25 5 -26 -10 -12 -14 14 -13 25 14 135 32 126 46 159 36 85 l-6 -45 16 53
c19 61 34 67 35 15z m-123 -13 c-5 -17 -15 -33 -21 -37 -5 -3 -7 -2 -4 4 4 6
11 22 16 37 14 36 22 33 9 -4z m452 -6 c0 -8 -4 -12 -10 -9 -5 3 -10 10 -10
16 0 5 5 9 10 9 6 0 10 -7 10 -16z m-250 -8 c0 -8 -9 -24 -20 -37 l-20 -24 17
37 c20 41 23 45 23 24z m855 -16 c4 -6 -2 -7 -16 -1 -13 4 -25 14 -27 20 -3
10 0 10 16 2 12 -6 24 -16 27 -21z m-528 -25 c-1 -19 -7 -37 -13 -39 -10 -4
-9 27 1 62 8 24 15 11 12 -23z m40 3 c-3 -8 -6 -5 -6 6 -1 11 2 17 5 13 3 -3
4 -12 1 -19z m-130 -10 c-3 -8 -6 -5 -6 6 -1 11 2 17 5 13 3 -3 4 -12 1 -19z
m173 -30 c-1 -29 0 -63 1 -75 1 -19 -21 -53 -34 -53 -3 0 -1 15 4 33 4 17 11
58 14 90 4 31 8 57 11 57 2 0 4 -24 4 -52z m-339 -1 c-10 -9 -11 -8 -5 6 3 10
9 15 12 12 3 -3 0 -11 -7 -18z m-132 -36 c-11 -22 -23 -41 -25 -41 -5 0 13 45
28 69 21 35 20 15 -3 -28z m492 6 c-8 -8 -11 -7 -11 4 0 20 13 34 18 19 3 -7
-1 -17 -7 -23z m-400 -69 c-12 -24 -18 -32 -15 -18 9 38 29 81 32 71 2 -6 -6
-29 -17 -53z m543 -410 c20 -47 20 -72 1 -88 -12 -10 -16 -9 -21 3 -4 11 -15
14 -40 10 -27 -4 -34 -2 -34 11 0 9 7 16 15 16 21 0 31 30 15 40 -18 11 -66
-26 -81 -63 -11 -25 -10 -31 4 -42 23 -16 22 -35 -2 -35 -10 0 -31 -10 -46
-21 -39 -32 -46 -13 -41 111 5 126 19 172 50 168 13 -2 22 -11 24 -25 4 -29
16 -29 39 0 10 13 34 27 53 33 l35 10 7 -46 c3 -25 13 -62 22 -82z m-86 -158
c2 -27 0 -30 -28 -30 -16 0 -30 2 -30 5 0 3 52 55 55 55 1 0 2 -13 3 -30z
m-537 -43 c11 -21 11 -21 -7 -6 -10 9 -27 19 -37 22 -10 4 -15 11 -12 17 9 14
42 -5 56 -33z m1875 -44 c-7 -7 -26 7 -26 19 0 6 6 6 15 -2 9 -7 13 -15 11
-17z m-1666 -199 c0 -20 -4 -25 -16 -20 -9 3 -18 6 -20 6 -2 0 -4 9 -4 20 0
13 7 20 20 20 15 0 20 -7 20 -26z m-105 -95 c8 -76 3 -91 -21 -67 -13 13 -15
28 -9 77 4 34 11 61 15 61 4 0 11 -32 15 -71z m424 -29 c111 -56 231 -111 396
-180 57 -24 80 -41 118 -87 53 -62 54 -72 16 -159 -26 -61 -61 -81 -186 -103
-33 -6 -43 -5 -43 6 0 7 8 13 19 13 23 0 67 34 83 63 10 21 10 21 -8 5 -10 -9
-37 -17 -59 -18 -67 -3 -68 -3 -47 28 25 36 49 84 30 61 -21 -26 -51 -38 -81
-32 -33 6 -33 12 -6 66 l21 42 -27 -28 c-25 -26 -29 -27 -48 -14 -23 15 -23
21 -14 120 4 36 0 53 -15 72 -11 14 -26 25 -33 25 -8 0 -57 20 -109 45 -53 25
-98 45 -102 45 -4 0 -33 12 -65 26 -80 36 -79 61 3 63 27 1 71 -16 157 -59z
m-283 19 c19 -39 26 -69 17 -69 -8 0 -53 82 -53 96 0 14 26 -5 36 -27z m-212
-70 c-3 -5 -2 -9 3 -9 11 0 53 -63 53 -79 0 -24 -29 9 -56 61 -18 35 -20 46
-9 42 8 -4 12 -10 9 -15z m1872 -150 c-18 -41 -21 -19 -3 29 6 19 13 28 15 20
1 -8 -4 -30 -12 -49z m-227 -634 c98 -31 166 -61 154 -68 -4 -2 -55 -5 -113
-6 -58 -1 -151 -4 -206 -7 -123 -8 -138 2 -78 53 36 30 88 49 141 52 12 1 58
-10 102 -24z m-572 -50 c0 -8 -4 -12 -9 -9 -4 3 -8 9 -8 15 0 5 4 9 8 9 5 0 9
-7 9 -15z m291 -54 c3 -8 -1 -12 -9 -9 -7 2 -15 10 -17 17 -3 8 1 12 9 9 7 -2
15 -10 17 -17z m250 -22 c-2 -6 3 -14 10 -16 6 -3 12 0 12 6 0 6 10 11 23 10
21 0 21 -1 2 -9 -16 -7 -17 -9 -3 -9 9 -1 20 4 23 9 3 6 11 10 17 10 6 0 8 -3
5 -7 -4 -3 1 -12 11 -20 15 -12 9 -13 -48 -8 -36 3 -77 6 -93 6 -22 0 -25 2
-15 13 7 7 18 12 24 9 7 -2 15 0 19 6 8 14 16 14 13 0z m-370 -97 c2 -8 -10
-12 -37 -12 -23 0 -41 5 -41 11 0 7 10 9 25 5 15 -4 25 -2 25 5 0 14 22 7 28
-9z m-904 -25 c16 -12 16 -14 2 -26 -9 -8 -16 -19 -16 -26 0 -15 -51 -35 -86
-35 -35 0 -29 23 16 64 44 39 57 43 84 23z m1500 -13 c19 -7 11 -24 -11 -24
-9 0 -24 -7 -34 -16 -13 -12 -28 -15 -54 -10 -19 4 -35 10 -35 14 0 5 26 15
58 24 31 9 58 17 59 17 1 1 8 -2 17 -5z m-1451 -52 c-6 -24 -23 -30 -23 -9 0
13 21 39 26 34 2 -2 1 -13 -3 -25z"/>
<path d="M95 2420 c-4 -17 -5 -34 -2 -36 3 -3 8 9 12 26 4 17 5 34 2 36 -3 3
-8 -9 -12 -26z"/>
<path d="M990 1101 c-12 -24 -13 -34 -1 -27 9 6 22 46 15 46 -2 0 -8 -9 -14
-19z"/>
<path d="M1071 1017 c-13 -21 -12 -21 5 -5 10 10 16 20 13 22 -3 3 -11 -5 -18
-17z"/>
<path d="M1174 978 c-37 -63 -37 -63 -11 -33 25 28 33 45 23 45 -3 0 -8 -6
-12 -12z"/>
<path d="M1202 3000 c0 -14 2 -19 5 -12 2 6 2 18 0 25 -3 6 -5 1 -5 -13z"/>
<path d="M6400 2984 c0 -8 5 -12 10 -9 6 4 8 11 5 16 -9 14 -15 11 -15 -7z"/>
<path d="M5736 2957 c3 -10 9 -15 12 -12 3 3 0 11 -7 18 -10 9 -11 8 -5 -6z"/>
<path d="M1545 2900 c-3 -5 -1 -10 4 -10 6 0 11 5 11 10 0 6 -2 10 -4 10 -3 0
-8 -4 -11 -10z"/>
<path d="M807 2881 c-4 -17 -3 -21 5 -13 5 5 8 16 6 23 -3 8 -7 3 -11 -10z"/>
<path d="M2450 2855 c0 -14 25 -55 33 -55 6 0 7 3 4 7 -4 3 -2 12 4 19 14 17
3 34 -22 34 -10 0 -19 -2 -19 -5z"/>
<path d="M2798 2823 c-16 -2 -28 -8 -28 -13 0 -5 -20 -12 -45 -16 -49 -7 -58
-19 -22 -30 12 -3 29 -12 37 -20 17 -14 70 -6 69 11 0 5 9 13 21 17 15 5 20
15 18 30 -3 24 -10 27 -50 21z"/>
<path d="M928 2765 c-2 -19 2 -45 9 -57 11 -21 12 -17 13 35 0 62 -15 78 -22
22z"/>
<path d="M2540 2790 c0 -5 5 -10 11 -10 5 0 7 5 4 10 -3 6 -8 10 -11 10 -2 0
-4 -4 -4 -10z"/>
<path d="M966 2767 c-10 -38 -7 -82 9 -103 13 -17 14 -13 15 48 0 67 -13 97
-24 55z"/>
<path d="M1727 2600 c-4 -14 -7 -38 -8 -55 -1 -29 -1 -29 -8 -5 -6 21 -8 22
-14 8 -3 -10 -13 -18 -22 -18 -8 0 -15 -3 -15 -7 0 -5 -5 -37 -10 -72 -7 -52
-6 -68 7 -88 20 -30 27 -24 12 11 -12 25 -10 30 26 66 34 35 39 46 43 99 5 66
-1 98 -11 61z"/>
<path d="M2880 2591 c0 -6 9 -9 20 -8 11 1 20 5 20 9 0 4 -9 8 -20 8 -11 0
-20 -4 -20 -9z"/>
<path d="M2027 2278 c-4 -29 -7 -78 -7 -110 0 -52 2 -56 20 -51 42 11 48 65
18 163 -17 55 -25 55 -31 -2z"/>
<path d="M1283 2273 c-21 -8 -15 -20 15 -26 15 -3 41 -9 57 -12 21 -5 26 -4
16 3 -7 5 -11 14 -7 20 3 5 -4 10 -17 9 -12 0 -29 2 -37 6 -8 3 -21 3 -27 0z"/>
<path d="M1386 2271 c-10 -15 22 -20 34 -5 10 11 9 14 -8 14 -12 0 -23 -4 -26
-9z"/>
<path d="M1325 2170 c-95 -16 -115 -22 -115 -34 0 -8 12 -11 35 -8 19 2 51 1
71 -2 29 -6 33 -10 24 -21 -6 -8 -30 -15 -53 -17 -57 -4 -49 -21 13 -31 39 -7
60 -5 95 9 25 9 43 19 40 22 -3 3 7 20 21 39 14 18 24 34 22 34 -5 2 -41 9
-73 13 -16 2 -52 0 -80 -4z m79 -55 c-4 -8 -11 -12 -16 -9 -6 4 -5 10 3 15 19
12 19 11 13 -6z"/>
<path d="M6239 2157 c-62 -28 -74 -60 -40 -103 11 -13 22 -47 26 -74 5 -40 11
-50 26 -50 10 0 24 7 31 16 7 8 21 24 31 35 25 28 18 60 -20 84 -44 27 -45 69
-3 58 25 -7 80 -95 80 -128 0 -14 5 -25 11 -25 8 0 9 13 5 38 -23 142 -66 185
-147 149z"/>
<path d="M1880 2053 c-13 -49 -27 -96 -32 -106 -9 -17 -8 -17 20 -3 32 17 37
28 47 134 10 90 -8 77 -35 -25z"/>
<path d="M2371 2124 c0 -11 3 -14 6 -6 3 7 2 16 -1 19 -3 4 -6 -2 -5 -13z"/>
<path d="M2382 2055 c0 -16 2 -22 5 -12 2 9 2 23 0 30 -3 6 -5 -1 -5 -18z"/>
<path d="M1110 2049 c0 -6 -8 -8 -19 -4 -11 3 12 -26 50 -65 54 -54 78 -72
110 -79 23 -5 45 -15 49 -21 4 -6 14 -8 23 -5 11 5 14 15 10 40 -5 31 -3 33
33 45 54 18 60 22 38 30 -21 8 -37 8 -105 -4 -52 -9 -87 4 -128 48 -25 26 -61
35 -61 15z"/>
<path d="M5301 2014 c-13 -30 -14 -44 -2 -44 12 0 32 58 22 64 -5 3 -13 -6
-20 -20z"/>
<path d="M2390 1977 c0 -20 4 -38 9 -42 6 -3 7 10 4 32 -8 50 -13 55 -13 10z"/>
<path d="M5700 1910 c0 -5 7 -10 15 -10 8 0 15 5 15 10 0 6 -7 10 -15 10 -8 0
-15 -4 -15 -10z"/>
<path d="M1792 1824 c-28 -33 -59 -111 -49 -121 3 -2 13 19 22 47 9 28 28 64
42 80 14 17 22 30 20 30 -3 0 -19 -16 -35 -36z"/>
<path d="M2368 1737 c15 -41 14 -45 -4 -69 l-19 -26 -29 26 c-24 23 -27 24
-18 6 6 -12 8 -24 5 -28 -11 -11 -12 -36 -2 -36 5 0 9 5 9 10 0 6 4 10 9 10
11 0 9 -19 -3 -38 -6 -11 -12 -10 -30 6 -35 31 -53 37 -27 8 18 -19 22 -29 14
-37 -12 -12 -36 -3 -28 11 3 5 -4 8 -15 7 -11 -1 -20 -2 -20 -4 0 -1 21 -14
48 -29 26 -15 52 -34 59 -41 9 -12 12 -11 18 6 3 12 15 21 25 21 25 0 35 17
13 22 -13 3 -8 9 20 22 33 16 37 22 34 50 -2 17 -7 38 -12 45 -5 10 -4 12 3 7
7 -4 12 -1 12 8 0 8 6 17 13 19 9 4 9 6 0 6 -6 1 -15 -3 -18 -9 -12 -19 -25
-10 -45 30 -27 52 -31 51 -12 -3z"/>
<path d="M2210 1759 c0 -6 -9 -8 -20 -4 -31 10 -44 -4 -24 -26 17 -19 18 -19
36 1 10 11 23 20 29 20 6 0 7 5 4 10 -8 13 -25 13 -25 -1z"/>
<path d="M2481 1733 c0 -4 4 -17 9 -28 8 -19 9 -19 9 2 1 12 -3 25 -9 28 -5 3
-10 3 -9 -2z"/>
<path d="M3573 1728 c-6 -7 -13 -19 -17 -25 -12 -21 18 -5 32 17 13 22 1 28
-15 8z"/>
<path d="M4656 1710 c7 -28 12 -35 18 -29 2 2 -2 15 -10 29 l-15 25 7 -25z"/>
<path d="M6310 1685 c-22 -23 -30 -26 -66 -20 -32 4 -43 2 -47 -10 -4 -8 -11
-15 -18 -15 -23 0 -118 -66 -139 -97 -20 -29 -20 -33 -6 -62 21 -40 20 -74 -3
-95 -15 -14 -24 -15 -40 -6 -12 6 -21 16 -21 22 0 7 -5 6 -15 -2 -9 -7 -19
-10 -23 -6 -4 4 0 13 8 19 27 20 12 44 -36 57 -49 14 -54 27 -23 54 21 18 21
18 2 38 -25 24 -87 30 -88 8 0 -8 -7 -26 -15 -40 -8 -14 -13 -33 -11 -44 1
-10 -2 -15 -8 -12 -5 4 -14 -2 -20 -11 -10 -17 -10 -17 -11 0 0 20 -18 22 -42
3 -11 -8 -15 -21 -12 -37 4 -21 3 -20 -7 4 -6 15 -15 27 -20 27 -7 0 -2 -22
18 -70 10 -24 11 -83 2 -68 -7 11 -9 11 -9 0 0 -7 -4 -11 -10 -7 -5 3 -6 13
-3 22 4 11 3 14 -5 9 -7 -4 -12 -1 -12 7 0 17 -27 30 -43 20 -7 -4 -8 0 -4 11
5 14 3 17 -8 12 -8 -3 -15 -1 -15 5 0 6 -7 4 -15 -5 -8 -8 -15 -20 -15 -28 0
-7 -8 -1 -17 12 -20 28 -26 53 -12 44 5 -3 7 -10 4 -15 -4 -5 -2 -9 4 -9 12 0
35 69 26 78 -10 10 -52 -47 -52 -71 -1 -45 -3 -49 -23 -44 -11 3 -18 1 -15 -3
3 -5 2 -10 -2 -13 -5 -2 -2 -2 5 0 20 5 8 -20 -15 -32 -11 -6 -19 -18 -17 -28
1 -9 -4 -17 -11 -17 -18 0 -28 -32 -13 -42 9 -5 5 -8 -12 -8 -18 0 -21 -3 -12
-12 8 -8 6 -17 -8 -36 -11 -13 -17 -28 -14 -33 3 -5 0 -9 -6 -9 -6 0 -8 -4 -5
-10 4 -6 -1 -7 -11 -3 -13 5 -16 2 -12 -8 5 -13 -21 -48 -32 -41 -2 2 -6 -2
-9 -9 -2 -7 2 -10 12 -6 16 6 18 -16 2 -30 -4 -4 -5 -3 -2 3 4 7 -2 14 -14 17
-16 4 -18 3 -9 -8 8 -10 8 -15 -1 -21 -8 -4 -9 -3 -5 4 4 7 2 12 -3 12 -6 0
-11 -5 -11 -11 0 -39 -60 -47 -307 -37 -34 2 -64 6 -68 10 -8 8 22 57 49 80
12 10 31 18 44 18 12 0 22 4 22 9 0 24 -68 -12 -108 -56 -34 -38 -48 -47 -70
-45 l-27 3 25 -20 c24 -19 25 -24 23 -123 -2 -130 -12 -158 -53 -158 -34 0
-34 0 -18 -37 17 -38 26 -43 80 -43 112 0 268 -35 268 -59 0 -6 -12 -37 -26
-70 -25 -58 -27 -60 -76 -70 -27 -6 -77 -11 -111 -12 -34 0 -105 -7 -157 -14
l-95 -14 120 5 c66 2 209 7 317 11 l197 6 11 30 c5 17 8 44 5 61 -5 26 -2 33
20 43 25 11 136 9 215 -4 l35 -6 -25 -11 c-43 -19 -109 -70 -113 -89 -8 -27
-44 -21 -51 8 -7 28 -36 34 -36 8 0 -29 -35 -74 -46 -63 -10 10 -53 1 -269
-56 -34 -9 -38 -8 164 -33 52 -6 97 -14 99 -16 3 -3 -6 -31 -20 -62 -14 -32
-29 -76 -32 -98 -4 -22 -9 -53 -12 -69 l-6 -28 -60 6 c-68 8 -171 -2 -162 -15
3 -5 374 -9 860 -9 l854 0 0 756 0 755 -82 -64 c-82 -64 -174 -117 -202 -117
-11 0 -13 8 -9 33 3 23 -3 53 -22 96 -24 57 -25 68 -16 113 15 69 14 83 -12
113 l-22 26 -25 -26z m-590 -259 c0 -3 -4 -8 -10 -11 -5 -3 -10 -1 -10 4 0 6
5 11 10 11 6 0 10 -2 10 -4z m72 -41 c-8 -16 -9 -16 -15 -1 -4 10 -3 15 3 11
6 -3 10 -1 10 6 0 7 3 10 6 6 3 -3 2 -13 -4 -22z m-154 -72 c25 -24 33 -41 30
-61 -2 -19 2 -27 12 -27 9 0 14 -9 13 -23 -3 -20 7 -27 30 -23 5 1 6 -3 2 -9
-3 -6 -11 -7 -17 -4 -6 4 -6 -1 1 -14 8 -15 7 -23 -4 -32 -8 -7 -15 -10 -15
-7 0 3 -12 -5 -26 -18 -18 -16 -38 -25 -58 -24 -17 1 -23 3 -13 6 18 5 24 33
7 33 -7 0 -7 6 -1 19 6 10 13 44 17 74 l6 55 -41 7 c-23 4 -48 13 -56 22 -17
17 -20 63 -4 63 7 0 9 -10 7 -25 -6 -27 5 -39 40 -48 30 -7 28 1 -3 13 -31 12
-33 40 -4 40 19 0 20 2 8 16 -27 32 34 4 69 -33z m354 15 c8 -22 -2 -36 -22
-31 -23 6 -25 14 -8 31 15 15 25 15 30 0z m-142 -48 c0 -11 -7 -20 -15 -20
-15 0 -21 21 -8 33 12 13 23 7 23 -13z m245 -8 c-3 -3 -11 0 -18 7 -9 10 -8
11 6 5 10 -3 15 -9 12 -12z m-675 -16 c0 -3 -4 -8 -10 -11 -5 -3 -10 -1 -10 4
0 6 5 11 10 11 6 0 10 -2 10 -4z m407 -98 c-3 -7 -5 -2 -5 12 0 14 2 19 5 13
2 -7 2 -19 0 -25z m-260 -70 c-3 -8 -6 -5 -6 6 -1 11 2 17 5 13 3 -3 4 -12 1
-19z m103 -38 c0 -5 -17 -10 -37 -9 -31 0 -34 2 -18 9 28 12 55 12 55 0z m374
-435 c-4 -8 -8 -15 -10 -15 -2 0 -4 7 -4 15 0 8 4 15 10 15 5 0 7 -7 4 -15z
m-114 -170 c0 -9 -6 -12 -15 -9 -8 4 -15 10 -15 15 0 5 7 9 15 9 8 0 15 -7 15
-15z m-745 -25 c-3 -5 -13 -10 -21 -10 -8 0 -12 5 -9 10 3 6 13 10 21 10 8 0
12 -4 9 -10z m657 -72 c-9 -9 -12 -7 -12 12 0 19 3 21 12 12 9 -9 9 -15 0 -24z
m178 -18 c0 -5 -4 -10 -10 -10 -5 0 -10 5 -10 10 0 6 5 10 10 10 6 0 10 -4 10
-10z"/>
<path d="M5630 1190 c0 -5 5 -10 10 -10 6 0 10 5 10 10 0 6 -4 10 -10 10 -5 0
-10 -4 -10 -10z"/>
<path d="M5619 1628 c-27 -74 -31 -90 -18 -82 6 3 8 -5 5 -20 -3 -14 0 -26 6
-26 6 0 8 17 5 43 -3 23 0 51 6 62 19 33 35 85 27 85 -4 0 -18 -28 -31 -62z"/>
<path d="M3531 1662 c-7 -13 -11 -28 -8 -35 2 -7 9 -2 16 11 7 13 11 28 8 35
-2 7 -9 2 -16 -11z"/>
<path d="M2458 1663 c-11 -3 -18 -13 -17 -26 0 -15 2 -17 6 -7 4 8 13 20 22
27 17 13 16 13 -11 6z"/>
<path d="M5649 1613 c-13 -21 -24 -42 -24 -48 -1 -18 31 -69 45 -73 10 -3 9 3
-5 19 l-20 24 27 -24 c31 -27 58 -22 58 9 0 17 -4 20 -19 15 -18 -5 -19 -1
-18 51 2 70 -12 79 -44 27z"/>
<path d="M2452 1580 c0 -14 2 -19 5 -12 2 6 2 18 0 25 -3 6 -5 1 -5 -13z"/>
<path d="M3525 1589 c-4 -6 -5 -12 -2 -15 2 -3 7 2 10 11 7 17 1 20 -8 4z"/>
<path d="M5717 1570 c-3 -13 0 -20 10 -20 8 0 11 5 8 10 -3 6 -1 10 5 10 6 0
8 5 5 10 -10 16 -22 12 -28 -10z"/>
<path d="M2462 1520 c0 -14 2 -19 5 -12 2 6 2 18 0 25 -3 6 -5 1 -5 -13z"/>
<path d="M2472 1465 c0 -16 2 -22 5 -12 2 9 2 23 0 30 -3 6 -5 -1 -5 -18z"/>
<path d="M4467 1483 c-4 -6 -3 -21 1 -34 6 -16 10 -18 14 -8 7 19 -6 56 -15
42z"/>
<path d="M5585 1460 c4 -6 1 -17 -5 -25 -20 -24 1 -17 21 7 24 26 24 28 -2 28
-11 0 -17 -4 -14 -10z"/>
<path d="M3468 1420 c-17 -41 -14 -47 12 -30 14 8 23 70 10 70 -3 0 -13 -18
-22 -40z"/>
<path d="M2482 1395 c0 -16 2 -22 5 -12 2 9 2 23 0 30 -3 6 -5 -1 -5 -18z"/>
<path d="M3755 1400 c-3 -5 -1 -10 4 -10 6 0 11 5 11 10 0 6 -2 10 -4 10 -3 0
-8 -4 -11 -10z"/>
<path d="M5446 1402 c-3 -5 1 -9 9 -9 8 0 15 4 15 9 0 4 -4 8 -9 8 -6 0 -12
-4 -15 -8z"/>
<path d="M3427 1313 c-17 -28 -34 -83 -27 -83 6 0 17 17 27 38 9 20 19 40 21
45 2 4 -1 7 -7 7 -5 0 -12 -3 -14 -7z"/>
<path d="M4319 1288 c-1 -7 -1 -16 0 -20 0 -4 -6 -4 -15 -1 -15 6 -15 4 0 -19
15 -23 15 -27 1 -41 -8 -9 -15 -25 -15 -36 0 -11 -3 -22 -8 -24 -11 -8 -6 -71
6 -75 8 -2 12 10 12 36 0 22 7 58 15 82 18 51 25 110 14 110 -5 0 -10 -6 -10
-12z"/>
<path d="M4570 1201 c-8 -6 -17 -8 -20 -6 -11 7 -79 -55 -94 -84 -8 -15 -17
-45 -20 -66 -6 -39 -6 -39 14 12 26 64 85 119 137 128 21 4 52 11 68 15 27 7
24 8 -20 9 -27 0 -57 -3 -65 -8z"/>
<path d="M3301 1160 c-19 -34 -21 -45 -11 -79 19 -71 83 -169 112 -171 4 0 9
12 11 28 4 27 4 27 6 -3 1 -35 55 -168 69 -173 5 -1 15 5 22 13 12 14 9 29
-13 100 -15 46 -34 88 -41 94 -8 7 -17 23 -20 36 -3 13 -15 27 -27 30 -19 6
-19 8 -3 19 13 10 15 17 6 32 -10 17 -11 17 -12 2 0 -25 -19 -22 -31 5 -8 17
-6 30 5 52 17 33 14 44 -9 25 -14 -11 -17 -10 -22 8 -8 31 -16 27 -42 -18z"/>
<path d="M4828 1173 c7 -3 16 -2 19 1 4 3 -2 6 -13 5 -11 0 -14 -3 -6 -6z"/>
<path d="M5315 1150 c4 -6 11 -8 16 -5 14 9 11 15 -7 15 -8 0 -12 -5 -9 -10z"/>
<path d="M2508 1110 c6 -42 24 -50 20 -9 -2 18 -8 34 -14 36 -7 2 -9 -8 -6
-27z"/>
<path d="M3486 1107 c-28 -36 -45 -97 -29 -97 6 0 13 16 16 35 3 19 15 49 27
65 29 41 17 38 -14 -3z"/>
<path d="M4064 1033 c-54 -41 -83 -72 -84 -89 0 -6 -15 -26 -34 -45 -36 -37
-53 -79 -31 -79 8 0 17 10 20 22 4 11 21 37 39 57 17 19 49 56 71 81 93 105
95 111 19 53z"/>
<path d="M4270 1035 c-8 -9 -8 -15 -2 -15 12 0 26 19 19 26 -2 2 -10 -2 -17
-11z"/>
<path d="M4320 1029 c0 -11 4 -18 10 -14 5 3 7 12 3 20 -7 21 -13 19 -13 -6z"/>
<path d="M2360 991 c-23 -7 -23 -8 -5 -14 11 -3 66 -6 122 -6 87 -1 101 2 97
14 -5 12 -25 15 -98 14 -50 -1 -102 -4 -116 -8z"/>
<path d="M2833 974 c-7 -3 -74 -11 -150 -18 -76 -8 -123 -14 -105 -15 17 0 32
-3 32 -5 0 -15 -14 -35 -21 -30 -9 5 -10 -3 -14 -71 -1 -16 -6 -41 -12 -55
-12 -28 -8 -40 13 -40 17 0 17 -6 4 -90 -14 -88 -18 -98 -39 -105 -21 -6 -24
-55 -4 -55 15 0 5 -37 -13 -44 -34 -13 -8 -21 63 -18 43 1 98 -1 123 -6 l45
-8 -1 -44 c-1 -25 -3 -54 -5 -65 -3 -12 2 -21 14 -23 36 -7 44 15 51 131 3 61
9 135 13 162 l8 50 68 5 c37 3 71 10 75 15 4 6 28 20 55 32 50 24 63 15 25
-18 l-23 -19 39 2 c36 3 41 6 49 38 5 19 20 43 33 55 13 11 24 24 24 29 0 14
-67 -1 -128 -29 -49 -23 -200 -61 -208 -52 -1 1 4 54 12 117 22 177 20 191
-23 174z"/>
<path d="M4301 909 c-7 -39 -10 -73 -6 -77 8 -8 65 56 65 74 0 8 -7 14 -16 14
-10 0 -13 6 -9 19 3 10 -1 23 -8 29 -11 10 -16 -1 -26 -59z"/>
<path d="M3290 913 c0 -22 2 -25 10 -13 13 20 13 40 0 40 -5 0 -10 -12 -10
-27z"/>
<path d="M4251 876 c-7 -21 -21 -46 -31 -56 -22 -22 -25 -112 -5 -145 6 -11
15 -32 19 -47 5 -23 3 -28 -13 -28 -11 0 -21 3 -24 8 -2 4 -2 0 1 -8 3 -8 7
-29 10 -47 3 -27 8 -32 40 -36 21 -2 41 0 47 4 5 5 19 9 32 9 29 0 30 25 3 60
-11 14 -20 34 -20 45 -1 34 -15 46 -51 43 -34 -3 -34 -3 -32 37 2 22 12 53 23
68 16 21 20 40 18 79 l-3 51 -14 -37z m34 -335 c3 -5 1 -12 -5 -16 -5 -3 -10
1 -10 9 0 18 6 21 15 7z"/>
<path d="M4565 894 c-16 -8 -39 -23 -50 -33 -11 -9 -33 -23 -50 -31 -37 -19
-44 -27 -38 -51 3 -10 6 -19 7 -19 1 0 15 4 33 9 23 7 35 6 43 -4 9 -10 4 -15
-21 -20 -27 -6 -30 -9 -15 -17 15 -8 15 -11 -6 -28 -13 -11 -18 -19 -12 -20 7
0 19 -11 28 -24 l16 -25 -56 -16 c-31 -9 -54 -18 -52 -21 3 -2 37 1 76 8 69
11 72 11 95 -10 l24 -22 11 22 11 23 0 -23 c1 -12 -5 -24 -11 -27 -7 -2 -45
-13 -83 -24 -39 -11 -79 -27 -90 -35 -14 -11 -5 -10 32 4 64 24 145 25 141 2
-2 -9 -23 -27 -47 -42 -25 -14 -46 -32 -49 -40 -2 -9 2 -6 12 5 15 20 15 20
16 -3 0 -13 -5 -32 -10 -43 -6 -10 -7 -19 -2 -19 5 0 13 10 19 23 6 12 23 29
39 37 31 16 69 50 57 50 -5 0 6 9 24 21 28 18 30 23 23 49 -5 17 -6 30 -2 30
3 0 -2 6 -11 13 -21 16 -60 116 -54 139 4 14 -3 19 -34 24 -39 7 -54 29 -21
33 31 4 76 2 109 -4 26 -5 32 -3 27 9 -3 7 -1 17 5 21 18 10 14 48 -4 41 -8
-3 -15 0 -15 7 0 7 -18 20 -40 30 -48 20 -39 20 -75 1z m-15 -230 c0 -18 -17
-27 -26 -13 -4 8 -3 9 4 5 7 -4 12 -3 12 3 0 5 -8 15 -17 20 -10 6 -14 11 -10
11 4 0 3 10 -4 23 -8 17 -5 16 15 -7 14 -16 26 -35 26 -42z"/>
<path d="M117 844 c-39 -21 -67 -46 -61 -55 2 -4 -5 -23 -16 -41 -50 -82 -7
-92 47 -11 21 31 46 68 55 82 30 44 23 51 -25 25z"/>
<path d="M3390 844 c0 -19 -31 -74 -41 -74 -4 0 -9 9 -11 21 -3 19 -6 18 -45
-16 -26 -22 -40 -41 -36 -50 3 -11 1 -13 -10 -10 -10 4 -16 -3 -20 -24 -6 -28
-27 -45 -27 -21 0 6 -4 10 -10 10 -5 0 -10 -9 -10 -19 0 -17 5 -18 43 -14 23
4 45 10 48 15 3 5 9 3 12 -6 8 -20 80 -22 94 -3 10 12 27 207 18 207 -3 0 -5
-7 -5 -16z"/>
<path d="M4335 714 l-40 -25 67 4 c44 3 66 1 62 -5 -4 -6 3 -5 15 1 24 13 26
22 9 39 -19 19 -70 13 -113 -14z"/>
<path d="M4397 664 c-14 -14 -7 -25 13 -22 12 2 21 8 21 13 0 12 -24 18 -34 9z"/>
<path d="M3370 595 c-20 -24 -6 -28 15 -5 10 11 13 20 8 20 -6 0 -16 -7 -23
-15z"/>
<path d="M3838 438 c5 -5 16 -8 23 -6 8 3 3 7 -10 11 -17 4 -21 3 -13 -5z"/>
<path d="M2448 404 c6 -3 12 -12 12 -20 0 -8 5 -14 11 -14 19 0 4 35 -16 37
-11 2 -14 0 -7 -3z"/>
<path d="M3348 403 c17 -2 47 -2 65 0 17 2 3 4 -33 4 -36 0 -50 -2 -32 -4z"/>
<path d="M3848 359 c-2 -4 -91 -22 -198 -38 -107 -17 -233 -37 -280 -45 -47
-8 -97 -12 -111 -9 -34 6 -91 -23 -87 -44 7 -38 49 -52 203 -67 220 -21 292
-15 635 50 74 14 138 29 142 33 5 4 11 34 14 67 l6 60 -161 0 c-88 0 -162 -3
-163 -7z m-304 -98 c7 -11 -44 -19 -85 -13 -22 3 -27 7 -18 13 18 11 96 11
103 0z m-129 -26 c0 -5 -28 -11 -62 -13 -58 -3 -83 8 -50 22 21 9 112 2 112
-9z"/>
<path d="M4206 330 c-3 -18 -6 -45 -6 -60 l0 -28 93 20 c50 11 99 24 107 30
12 8 11 8 -3 4 -13 -4 -20 0 -24 14 -3 11 -13 20 -23 20 -10 0 -20 4 -22 10
-1 5 -28 12 -59 16 l-56 6 -7 -32z"/>
<path d="M2863 332 c-3 -7 2 -32 11 -56 13 -33 16 -70 14 -148 -1 -57 1 -109
5 -116 11 -17 201 -17 214 1 5 6 8 59 7 117 -2 73 2 120 13 153 9 26 13 51 9
54 -3 4 -65 7 -137 7 -99 1 -133 -2 -136 -12z"/>
<path d="M4130 143 l-25 -15 25 6 c14 3 28 6 33 6 4 0 7 5 7 10 0 13 -9 11
-40 -7z"/>
<path d="M2750 105 c-18 -22 -4 -35 30 -25 44 13 55 21 39 31 -21 13 -55 11
-69 -6z"/>
<path d="M2745 50 c-13 -22 6 -50 34 -50 32 0 56 22 47 45 -6 17 -71 21 -81 5z"/>
<path d="M4815 40 c3 -5 15 -10 26 -10 10 0 19 5 19 10 0 6 -12 10 -26 10 -14
0 -23 -4 -19 -10z"/>
</g>
</svg>
